<svg width="1172" height="726" viewBox="0 0 1172 726" fill="none" xmlns="http://www.w3.org/2000/svg">
<g clip-path="url(#clip0_643_288)">
<path d="M722.699 3.29922V722.699H3.29922V3.29922H722.699ZM723.799 2.19922H2.19922V723.799H723.799V2.19922Z" fill="#C1ABB0"/>
<path d="M1168.6 3.29922V722.699H3.29922V3.29922H1168.6ZM1169.7 2.19922H2.19922V723.799H1169.7V2.19922Z" fill="#C1ABB0"/>
<path d="M1168.6 3.29922V446.999H724.899V3.29922H1168.6ZM1169.7 2.19922H723.799V448.099H1169.7V2.19922Z" fill="#C1ABB0"/>
<path d="M1168.6 3.29922V722.599H724.899V3.29922H1168.6ZM1169.7 2.19922H723.799V723.699H1169.7V2.19922Z" fill="#C1ABB0"/>
<path d="M1168.6 449.299V722.699H895.2V449.299H1168.6ZM1169.7 448.199H894.1V723.799H1169.7V448.199Z" fill="#C1ABB0"/>
<path d="M1168.6 449.299V722.699H724.899V449.299H1168.6ZM1169.7 448.199H723.799V723.799H1169.7V448.199Z" fill="#C1ABB0"/>
<path d="M892.999 554.498V722.598H724.899V554.498H892.999ZM894.099 553.398H723.799V723.698H894.099V553.398Z" fill="#C1ABB0"/>
<path d="M892.999 449.299V722.699H724.899V449.299H892.999ZM894.099 448.199H723.799V723.799H894.099V448.199Z" fill="#C1ABB0"/>
<path d="M827.999 449.299V552.399H724.899V449.299H827.999ZM829.099 448.199H723.799V553.499H829.099V448.199Z" fill="#C1ABB0"/>
<path d="M892.999 449.299V552.399H724.899V449.299H892.999ZM894.099 448.199H723.799V553.499H894.099V448.199Z" fill="#C1ABB0"/>
<path d="M893 449.299V512.099H830.2V449.299H893ZM894.1 448.199H829V513.299H894.1V448.199Z" fill="#C1ABB0"/>
<path d="M893 449.299V552.299H830.2V449.299H893ZM894.1 448.199H829V553.499H894.1V448.199Z" fill="#C1ABB0"/>
<path d="M892.998 514.299V552.299H854.998V514.299H892.998ZM894.098 513.199H853.898V553.399H894.098V513.199Z" fill="#C1ABB0"/>
<path d="M893 514.299V552.299H830.2V514.299H893ZM894.1 513.199H829V553.399H894.1V513.199Z" fill="#C1ABB0"/>
<path d="M852.8 529.7V552.3H830.2V529.7H852.8ZM853.9 528.6H829V553.5H853.9V528.6Z" fill="#C1ABB0"/>
<path d="M852.8 514.299V552.299H830.2V514.299H852.8ZM853.9 513.199H829V553.399H853.9V513.199Z" fill="#C1ABB0"/>
<path d="M843.3 514.299V527.399H830.2V514.299H843.3ZM844.4 513.199H829V528.599H844.4V513.199Z" fill="#C1ABB0"/>
<path d="M852.8 514.299V527.399H830.2V514.299H852.8ZM853.9 513.199H829.1V528.599H853.9V513.199Z" fill="#C1ABB0"/>
<path d="M2.2 726C1 726 0 725 0 723.8C0 530.5 75.3 348.7 212 212C348.7 75.3 530.5 0 723.8 0C970.9 0 1172 201 1172 448.2C1172 601.4 1047.4 726 894.2 726C799.1 726 721.6 648.6 721.6 553.4V551.2C722.8 492.9 770.5 445.9 829.1 445.9C866.2 445.9 896.4 476.1 896.4 513.2C896.4 536.6 877.4 555.6 854 555.6C839.1 555.6 826.9 543.5 826.9 528.5C826.9 518.8 834.8 510.9 844.5 510.9C845.7 510.9 846.7 511.9 846.7 513.1C846.7 514.3 845.7 515.3 844.5 515.3C837.3 515.3 831.4 521.2 831.4 528.4C831.4 540.9 841.6 551 854 551C874.9 551 892 534 892 513C892 478.3 863.8 450.2 829.2 450.2C801.7 450.2 775.8 460.9 756.3 480.4C736.7 500 726 525.9 726 553.4V554.9C726.8 646.9 801.9 721.5 894.1 721.5C1044.8 721.5 1167.5 598.9 1167.5 448.1C1167.5 203.4 968.4 4.4 723.8 4.4C327.1 4.4 4.4 327.1 4.4 723.8C4.4 725 3.4 726 2.2 726Z" fill="#C1ABB0"/>
</g>
<defs>
<clipPath id="clip0_643_288">
<rect width="1172" height="726" fill="white"/>
</clipPath>
</defs>
</svg>
