<svg width="271" height="331" viewBox="0 0 271 331" fill="none" xmlns="http://www.w3.org/2000/svg">
<g clip-path="url(#clip0_999_3966)">
<path d="M149.141 0C133.959 -2.31604e-07 119.398 6.03031 108.662 16.7646C97.9261 27.4989 91.8933 42.0581 91.8906 57.24V330.11H92.5606C100.077 330.11 107.521 328.629 114.465 325.753C121.41 322.876 127.72 318.66 133.035 313.345C138.351 308.03 142.567 301.719 145.443 294.775C148.32 287.83 149.801 280.387 149.801 272.87V0.00999999L149.141 0Z" fill="#19181D"/>
<path d="M57.89 215.65V330.11H57.24C42.0607 330.11 27.503 324.081 16.7687 313.349C6.03445 302.616 0.00265186 288.06 0 272.88V215.72L57.89 215.65Z" fill="#19181D"/>
<path d="M241.681 57.89C241.681 65.4931 240.184 73.0217 237.274 80.0459C234.364 87.07 230.099 93.4522 224.722 98.8279C219.345 104.204 212.963 108.468 205.938 111.376C198.913 114.285 191.384 115.781 183.781 115.78C183.851 66.08 183.841 65.63 183.781 8.63786e-07C191.384 -0.0013125 198.913 1.49509 205.938 4.40374C212.963 7.3124 219.345 11.5763 224.722 16.9521C230.099 22.3278 234.364 28.71 237.274 35.7341C240.184 42.7583 241.681 50.2869 241.681 57.89Z" fill="#19181D"/>
<path fill-rule="evenodd" clip-rule="evenodd" d="M212.73 144.79C212.73 144.787 212.73 144.784 212.73 144.78C227.953 144.98 242.485 151.168 253.179 162.004C263.873 172.839 269.87 187.451 269.87 202.675C269.87 217.9 263.873 232.511 253.179 243.347C242.58 254.086 228.212 260.26 213.137 260.564V260.58H183.789V144.79H212.73Z" fill="#19181D"/>
</g>
<defs>
<clipPath id="clip0_999_3966">
<rect width="270.63" height="330.13" fill="white"/>
</clipPath>
</defs>
</svg>
